<?xml version="1.0" encoding="iso-8859-1"?>
<!-- Generator: Adobe Illustrator 17.1.0, SVG Export Plug-In . SVG Version: 6.00 Build 0)  -->
<!DOCTYPE svg PUBLIC "-//W3C//DTD SVG 1.1//EN" "http://www.w3.org/Graphics/SVG/1.1/DTD/svg11.dtd">
<svg xmlns="http://www.w3.org/2000/svg" xmlns:xlink="http://www.w3.org/1999/xlink" version="1.1" id="Capa_1" x="0px" y="0px" viewBox="0 0 453.793 453.793" style="enable-background:new 0 0 453.793 453.793;" xml:space="preserve" width="512px" height="512px">
<g>
	<path d="M213.585,132.804c-26.837,0-48.671,21.832-48.671,48.667v94.882c0,26.836,21.833,48.668,48.671,48.668   c26.835,0,48.668-21.832,48.668-48.668v-94.882C262.252,154.636,240.42,132.804,213.585,132.804z M184.914,181.471   c0-15.807,12.862-28.667,28.671-28.667c15.807,0,28.667,12.86,28.667,28.667v14.882c0,15.808-12.86,28.668-28.667,28.668   c-15.809,0-28.671-12.86-28.671-28.668V181.471z M213.585,305.021c-15.809,0-28.671-12.86-28.671-28.668v-40.706   c8.048,5.888,17.958,9.374,28.671,9.374c10.712,0,20.62-3.486,28.667-9.373v40.705   C242.252,292.161,229.392,305.021,213.585,305.021z" fill="#4c4c4c"/>
	<path d="M363.415,90.777c-4.307-4.548-10.088-7.052-16.278-7.052h-3.95c-1.993-42.401-16.1-65.646-16.745-66.685   c-1.824-2.94-5.038-4.728-8.497-4.728h-20.209c-3.867-3.35-9.818-7.185-19.003-11.401c-2.648-1.215-5.695-1.215-8.344,0.001   c-7.176,3.294-12.374,6.356-16.152,9.136c-3.779-2.781-8.978-5.842-16.156-9.137c-2.648-1.216-5.696-1.215-8.343,0   c-7.177,3.295-12.374,6.356-16.153,9.136c-3.779-2.781-8.978-5.842-16.156-9.137c-2.648-1.216-5.695-1.215-8.342,0   c-7.179,3.295-12.378,6.356-16.158,9.137c-3.778-2.78-8.975-5.842-16.152-9.136c-2.649-1.216-5.695-1.216-8.344-0.001   c-9.185,4.216-15.136,8.05-19.003,11.401h-20.206c-3.459,0-6.673,1.788-8.497,4.727c-0.694,1.118-16.99,27.937-16.99,76.686   c0,33.015,5.769,58.366,11.877,85.205c3.09,13.58,6.286,27.622,8.981,43.586c3.506,20.777,4.388,41.965,5.32,64.398   c1.27,30.526,2.582,62.092,10.892,94.106c11.122,42.848,49.273,72.773,92.775,72.773c43.502,0,81.653-29.926,92.775-72.773   c8.31-32.014,9.623-63.579,10.892-94.106c0.933-22.433,1.814-43.621,5.32-64.397c2.695-15.965,5.891-30.007,8.981-43.586   c1.46-6.417,2.899-12.751,4.246-19.123h5.88c12.68,0,24.135-10.266,26.079-23.371c0.032-0.214,0.057-0.429,0.075-0.645   l2.167-26.266c0.007-0.093,0.014-0.186,0.019-0.279C370.393,102.335,367.986,95.603,363.415,90.777z M274.566,21.146   c4.337,2.275,8.405,4.823,10.325,6.494v9.626h-20.652v-9.625C266.155,25.975,270.225,23.425,274.566,21.146z M233.914,21.146   c4.337,2.275,8.404,4.823,10.324,6.494v9.626h-20.652v-9.625C225.503,25.975,229.572,23.425,233.914,21.146z M193.261,21.145   c4.338,2.275,8.405,4.824,10.325,6.494v9.626h-20.658v-9.624C184.846,25.976,188.918,23.425,193.261,21.145z M152.604,21.148   c4.341,2.28,8.407,4.828,10.324,6.492v9.625h-20.652v-9.625C144.193,25.976,148.262,23.427,152.604,21.148z M115.351,32.312h6.925   v14.954c0,5.523,4.477,10,10,10H294.89c5.523,0,10-4.477,10-10V32.312h6.967c3.564,7.799,9.967,25.154,11.317,51.412H103.998   C105.365,57.686,111.798,40.174,115.351,32.312z M312.05,174.492c-3.152,13.851-6.411,28.173-9.2,44.696   c-3.716,22.017-4.665,44.832-5.583,66.895c-1.226,29.479-2.494,59.962-10.268,89.912c-8.833,34.031-39.023,57.798-73.417,57.798   c-34.393,0-64.583-23.768-73.417-57.798c-7.774-29.95-9.042-60.433-10.268-89.912c-0.917-22.063-1.866-44.878-5.583-66.896   c-2.789-16.522-6.048-30.845-9.2-44.695c-5.425-23.841-10.184-44.805-11.178-70.767h219.29   C322.233,129.687,317.475,150.651,312.05,174.492z M347.932,133.751c-0.639,3.43-3.833,6.056-6.254,6.056h-2.093   c1.846-11.313,3.183-23.138,3.649-36.082h3.902c0.246,0,0.995,0,1.757,0.805c0.792,0.835,1.21,2.114,1.158,3.522L347.932,133.751z" fill="#4c4c4c"/>
</g>
<g>
</g>
<g>
</g>
<g>
</g>
<g>
</g>
<g>
</g>
<g>
</g>
<g>
</g>
<g>
</g>
<g>
</g>
<g>
</g>
<g>
</g>
<g>
</g>
<g>
</g>
<g>
</g>
<g>
</g>
</svg>
