<svg xmlns="http://www.w3.org/2000/svg" viewBox="0 0 119.77 53.45"><defs><style>.a{fill:#90aef4}.b{isolation:isolate}.c{fill:#4c4c4c}.d{fill:#b4b4b4}</style></defs><title>logo</title><path class="a" d="M89.57 3.52l.45 11.51a.67.67 0 0 0 .6.67l16.87.85.43 11.12c.1 2.49 1.57 4.45 3.27 4.39s3-2.14 2.92-4.63l-.42-10.85a7 7 0 0 0 3.76-2.21 8.81 8.81 0 0 0 2.12-6.34 8.8 8.8 0 0 0-2.61-6 7 7 0 0 0-5.78-2L90.09 2.81a.67.67 0 0 0-.52.71zm19.15 13.08l3.12.15h.61l.42 10.74c.07 1.69-.73 3.16-1.74 3.2s-1.92-1.36-2-3zM90.78 4.12l20.5-2.64h.55a5.79 5.79 0 0 1 4.27 1.64 7.37 7.37 0 0 1 2.17 5.09 7.35 7.35 0 0 1-1.77 5.25 5.8 5.8 0 0 1-4.68 2l-20.65-1zm-3 1.05a.66.66 0 0 0-.65-.67l-2.48.1a.715.715 0 0 0 .05 1.43l2.48-.1a.66.66 0 0 0 .6-.76zm-4.19 4.34a.66.66 0 0 0 .65.67l2.48-.1a.7.7 0 0 0-.05-1.38l-2.48.1a.65.65 0 0 0-.6.7zm1.4 4.12a.66.66 0 0 0 .65.67l2.48-.1a.7.7 0 0 0-.05-1.38l-2.49.07a.66.66 0 0 0-.59.72z"/><path class="a" d="M110.132 18.124l1.24-.05.138 3.467-1.24.05z"/><g class="b"><path class="c" d="M13.37 34.8l3.48-18.11L7.4 34.8H2.78l4.63-24a7.37 7.37 0 0 0-3.3 2.93 9.12 9.12 0 0 0-1.18 4.79A6.87 6.87 0 0 0 3 19.61a4.31 4.31 0 0 0 .16.67 3.12 3.12 0 0 0 .16.39.55.55 0 0 1 .07.24 5.45 5.45 0 0 1-1.46-.18 2.66 2.66 0 0 1-1.08-.58 2.41 2.41 0 0 1-.65-1 5.16 5.16 0 0 1-.22-1.62 6.09 6.09 0 0 1 .46-2.3 8.89 8.89 0 0 1 1.25-2.15 11.27 11.27 0 0 1 1.88-1.87 13.57 13.57 0 0 1 2.35-1.49 13.28 13.28 0 0 1 2.59-1 10.5 10.5 0 0 1 2.68-.35h.66l.62.05-3.6 18.74 9.56-18.7h4.6L17.97 34.8zm32.61-6.56q-1.89 5.55-5.58 5.55a4.27 4.27 0 0 1-1.62-.26 3.13 3.13 0 0 1-1.1-.7 2.82 2.82 0 0 1-.64-1 3.44 3.44 0 0 1-.21-1.19 20.39 20.39 0 0 1 .63-4l.47-2.14-4.44 9.13h-4.2l-.51-9.17-.4 1.89q-.37 1.79-.71 3.18a10.41 10.41 0 0 1-.84 2.34 3.78 3.78 0 0 1-1.25 1.44 3.44 3.44 0 0 1-1.92.49 3.24 3.24 0 0 1-1.47-.31 3.09 3.09 0 0 1-1-.81 3.43 3.43 0 0 1-.6-1.11 3.88 3.88 0 0 1-.2-1.21 2.54 2.54 0 0 1 .49-1.66 1.67 1.67 0 0 1 1.37-.6 1.48 1.48 0 0 1 1.53 1.56 1.47 1.47 0 0 1-.37 1.09.94.94 0 0 1-.83.29 1.24 1.24 0 0 0 0 .37.91.91 0 0 0 .18.37 1.05 1.05 0 0 0 .37.29 1.34 1.34 0 0 0 .6.12 1.72 1.72 0 0 0 1.3-.52 3.92 3.92 0 0 0 .81-1.38 12.64 12.64 0 0 0 .53-2q.21-1.11.45-2.26l1.58-7.44h4.2l.63 11.51 5.65-11.48h4.44l-1.6 7.41q-.34 1.45-.53 2.32A6.73 6.73 0 0 0 41 29.6q0 1.26 1.2 1.26a1.87 1.87 0 0 0 .79-.15 1.84 1.84 0 0 0 .62-.48 4.22 4.22 0 0 0 .54-.83q.26-.5.56-1.19z"/><path class="c" d="M61.13 28.24a13.49 13.49 0 0 1-.92 2.11 8.91 8.91 0 0 1-1 1.51 5.82 5.82 0 0 1-1.09 1 5.4 5.4 0 0 1-1.08.59 4.77 4.77 0 0 1-1 .28 5.91 5.91 0 0 1-.88.07 2.88 2.88 0 0 1-2.05-.71 3.31 3.31 0 0 1-.92-2.13 7.43 7.43 0 0 1-1.21 1.47 5.48 5.48 0 0 1-1.16.86 3.71 3.71 0 0 1-1.11.4 5.87 5.87 0 0 1-1 .1 3.79 3.79 0 0 1-1.26-.21 2.62 2.62 0 0 1-1-.64 3.09 3.09 0 0 1-.67-1.11 4.7 4.7 0 0 1-.25-1.63 7.66 7.66 0 0 1 .06-.9q.06-.49.18-1.06l2-9.62h4.31l-2.15 10.2a4.65 4.65 0 0 0-.09.85 1.83 1.83 0 0 0 .19.87.72.72 0 0 0 .7.36 1.68 1.68 0 0 0 .81-.2 2.36 2.36 0 0 0 .67-.55 3.63 3.63 0 0 0 .53-.84 8.37 8.37 0 0 0 .4-1.06l2-9.62h4.32l-2.15 10.2a3 3 0 0 0-.1.49 4 4 0 0 0 0 .48 1.06 1.06 0 0 0 .3.87 1.47 1.47 0 0 0 .93.24 1.72 1.72 0 0 0 .81-.2 2.41 2.41 0 0 0 .68-.55 3.66 3.66 0 0 0 .54-.84 6.6 6.6 0 0 0 .4-1.06z"/><path class="c" d="M70.57 36.03a8.05 8.05 0 0 1-.93 2.61 5.42 5.42 0 0 1-1.35 1.55 4.22 4.22 0 0 1-1.51.74 6.85 6.85 0 0 1-1.56.19 4.47 4.47 0 0 1-1.3-.18 3.18 3.18 0 0 1-1.14-.54 2.63 2.63 0 0 1-.72-.91 2.87 2.87 0 0 1-.28-1.29 3.07 3.07 0 0 1 .45-1.66 4.64 4.64 0 0 1 1.15-1.25 7.6 7.6 0 0 1 1.57-.92 16.57 16.57 0 0 1 1.72-.64l.37-1.58a5.86 5.86 0 0 1-1.54 1.17 4.34 4.34 0 0 1-2.06.47 4.53 4.53 0 0 1-1.49-.25 3.25 3.25 0 0 1-1.27-.82 4.14 4.14 0 0 1-.9-1.49 6.61 6.61 0 0 1-.34-2.26 12.78 12.78 0 0 1 .21-2.2 13.9 13.9 0 0 1 .63-2.34 13.36 13.36 0 0 1 1.06-2.25 9.06 9.06 0 0 1 1.49-1.9 6.86 6.86 0 0 1 1.95-1.32 5.74 5.74 0 0 1 2.39-.49 3.09 3.09 0 0 1 1.85.44 1.32 1.32 0 0 1 .6 1.12v.18l.32-1.55h4.32l-3 13.92a6.57 6.57 0 0 0 1.25-.56 4.46 4.46 0 0 0 1-.83 5.88 5.88 0 0 0 .83-1.21 9.88 9.88 0 0 0 .68-1.68h1.26a10.48 10.48 0 0 1-1.08 2.49 7.74 7.74 0 0 1-1.33 1.63 5.62 5.62 0 0 1-1.45 1 8.63 8.63 0 0 1-1.45.51zm-4.17-.78q-.59.22-1.11.48a5.46 5.46 0 0 0-.93.56 2.71 2.71 0 0 0-.64.68 1.49 1.49 0 0 0-.24.83 1.06 1.06 0 0 0 .06.34 1 1 0 0 0 .18.32.9.9 0 0 0 .31.23 1.08 1.08 0 0 0 .45.09 1.31 1.31 0 0 0 1-.65 5.26 5.26 0 0 0 .78-2zm2.94-13.8a1.18 1.18 0 0 0-.26-.69 1.18 1.18 0 0 0-.37-.3 1.29 1.29 0 0 0-.6-.12 2 2 0 0 0-1.19.41 4.46 4.46 0 0 0-1 1.09 8.76 8.76 0 0 0-.83 1.55 14.59 14.59 0 0 0-.62 1.78 14.74 14.74 0 0 0-.39 1.8 10.93 10.93 0 0 0-.13 1.59 4.29 4.29 0 0 0 .16 1.33 1.81 1.81 0 0 0 .39.7.9.9 0 0 0 .49.27 2.89 2.89 0 0 0 .47 0 1.64 1.64 0 0 0 .66-.15 2.8 2.8 0 0 0 .7-.45 3.2 3.2 0 0 0 .62-.73 3.5 3.5 0 0 0 .42-1z"/><path class="c" d="M84.23 33.62l1.55-7.21h-1.71a15.51 15.51 0 0 1-.79 2.62 9.85 9.85 0 0 1-1.33 2.37 6.76 6.76 0 0 1-1.9 1.71 4.8 4.8 0 0 1-2.52.66 4.66 4.66 0 0 1-1.7-.27 3 3 0 0 1-1.11-.72 2.58 2.58 0 0 1-.59-1 4 4 0 0 1-.18-1.17 3.7 3.7 0 0 1 .15-1.1 2.48 2.48 0 0 1 .39-.78 1.62 1.62 0 0 1 .56-.48 1.49 1.49 0 0 1 .67-.16 1.9 1.9 0 0 1 .54.09 1.29 1.29 0 0 1 .54.34 6.25 6.25 0 0 0-.3 1 4.88 4.88 0 0 0-.1.94 2.78 2.78 0 0 0 .1.81 1.66 1.66 0 0 0 .26.53.94.94 0 0 0 .72.37 1.21 1.21 0 0 0 .83-.38 4.34 4.34 0 0 0 .77-1 9.94 9.94 0 0 0 .7-1.5 16.19 16.19 0 0 0 .53-1.8q.22-.94.34-1.91a14.75 14.75 0 0 0 .13-1.86 4.74 4.74 0 0 0-.46-2.39 1.5 1.5 0 0 0-1.37-.75 1.73 1.73 0 0 0-1.38.59 5.84 5.84 0 0 0-.93 1.67h-1.57a11.44 11.44 0 0 1 .71-1.87 5.24 5.24 0 0 1 1-1.41 4.16 4.16 0 0 1 1.39-.89 5.05 5.05 0 0 1 1.85-.31 4.82 4.82 0 0 1 1.85.34 3.71 3.71 0 0 1 1.38 1 4.33 4.33 0 0 1 .86 1.5 6.07 6.07 0 0 1 .3 2 13.15 13.15 0 0 1-.09 1.51h1.8l1.26-6h4l-1.26 6h1.68a14.93 14.93 0 0 1 .9-2.31 9.3 9.3 0 0 1 1.3-2 6.16 6.16 0 0 1 1.78-1.51 4.55 4.55 0 0 1 2.21-.54 4 4 0 0 1 1.51.24 2.53 2.53 0 0 1 1 .63 2.2 2.2 0 0 1 .49.89 3.72 3.72 0 0 1 .14 1 2.54 2.54 0 0 1-.45 1.64 1.36 1.36 0 0 1-1.09.54 1.75 1.75 0 0 1-.53-.09 1.91 1.91 0 0 1-.53-.26 7.08 7.08 0 0 0 .23-1 5 5 0 0 0 .07-.82 1.94 1.94 0 0 0-.18-.89.55.55 0 0 0-.51-.34 1.16 1.16 0 0 0-.79.38 4.32 4.32 0 0 0-.75 1 10.51 10.51 0 0 0-.67 1.51 17.3 17.3 0 0 0-.54 1.8 19.24 19.24 0 0 0-.36 1.92 13.86 13.86 0 0 0-.13 1.85 3.81 3.81 0 0 0 .61 2.39 2 2 0 0 0 1.6.75 5.18 5.18 0 0 0 3.46-1.63 5.52 5.52 0 0 1-.52 1.55 4.27 4.27 0 0 1-.78 1.07 3.66 3.66 0 0 1-.94.67 5.26 5.26 0 0 1-1.93.52h-.78a4.77 4.77 0 0 1-1.84-.21 3.78 3.78 0 0 1-1.38-1 4.23 4.23 0 0 1-.86-1.5 6 6 0 0 1-.3-2v-1.27a8 8 0 0 1 .2-1.36h-1.66l-1.49 7.21z"/></g><path class="d" d="M37.78 46.03a12.4 12.4 0 0 1-1.22 1.46 8.68 8.68 0 0 1-1.55 1.26 8.18 8.18 0 0 1-1.91.89 7.45 7.45 0 0 1-2.32.39 6.4 6.4 0 0 1-1.64-.19 3.43 3.43 0 0 1-1.25-.6 2.63 2.63 0 0 1-.8-1 3.86 3.86 0 0 1-.31-1.6 8 8 0 0 1 .15-1.42 9.2 9.2 0 0 1 1.34-3.31 6.47 6.47 0 0 1 1.29-1.45 6.15 6.15 0 0 1 4.07-1.43 4.67 4.67 0 0 1 1.39.17 2.45 2.45 0 0 1 .87.45 1.46 1.46 0 0 1 .45.63 2.14 2.14 0 0 1 .12.71 2 2 0 0 1-.11.68 1.4 1.4 0 0 1-.29.49 1.14 1.14 0 0 1-.43.29 1.47 1.47 0 0 1-.52.09 1.86 1.86 0 0 1-.89-.25 3.11 3.11 0 0 0 .3-1.26 1.06 1.06 0 0 0-.17-.64.62.62 0 0 0-.53-.24 1.31 1.31 0 0 0-.8.3 3.84 3.84 0 0 0-.76.8 7.29 7.29 0 0 0-.68 1.15 11.19 11.19 0 0 0-.54 1.35 10.86 10.86 0 0 0-.36 1.39 7 7 0 0 0-.13 1.29 2.82 2.82 0 0 0 .12.89 1.22 1.22 0 0 0 .35.55 1.32 1.32 0 0 0 .57.28 3.72 3.72 0 0 0 .8.08 5.07 5.07 0 0 0 2.52-.63 6.45 6.45 0 0 0 1-.69q.48-.4 1-.85z"/><path class="d" d="M45.22 47.44a6.35 6.35 0 0 1-.43 1 4.13 4.13 0 0 1-.48.7 2.7 2.7 0 0 1-.51.46 2.53 2.53 0 0 1-.51.27 2.23 2.23 0 0 1-.51.16 2.8 2.8 0 0 1-.41 0 1.34 1.34 0 0 1-.95-.32 1.5 1.5 0 0 1-.43-1 5.58 5.58 0 0 1-.38.47 2.84 2.84 0 0 1-.46.41 2.3 2.3 0 0 1-.56.29 2 2 0 0 1-.69.11 2.12 2.12 0 0 1-.7-.12 1.52 1.52 0 0 1-.59-.38 1.93 1.93 0 0 1-.42-.7 3.08 3.08 0 0 1-.16-1.05 5.94 5.94 0 0 1 .1-1 6.49 6.49 0 0 1 .29-1.09 6.28 6.28 0 0 1 .5-1 4.24 4.24 0 0 1 .7-.89 3.21 3.21 0 0 1 .91-.62 2.68 2.68 0 0 1 1.11-.23 1.44 1.44 0 0 1 .86.21.62.62 0 0 1 .27.51v.1l.15-.75h2l-1 4.76a1.42 1.42 0 0 0 0 .23 1.83 1.83 0 0 0 0 .22q0 .6.57.6a.72.72 0 0 0 .38-.11 1.25 1.25 0 0 0 .32-.28 1.9 1.9 0 0 0 .25-.42 3.65 3.65 0 0 0 .18-.51zm-3.53-3.16a.56.56 0 0 0 0-.15.53.53 0 0 0-.09-.18.52.52 0 0 0-.17-.14.6.6 0 0 0-.28-.06.93.93 0 0 0-.56.19 2.1 2.1 0 0 0-.48.51 4.1 4.1 0 0 0-.39.72 7 7 0 0 0-.47 1.67 5.11 5.11 0 0 0-.06.74 2 2 0 0 0 .08.62.85.85 0 0 0 .18.33.42.42 0 0 0 .23.13h.22a.82.82 0 0 0 .33-.08 1.23 1.23 0 0 0 .33-.23 1.73 1.73 0 0 0 .22-.32 1.91 1.91 0 0 0 .2-.54z"/><path class="d" d="M53.04 47.44q-.89 2.59-2.61 2.59a2 2 0 0 1-.73-.12 1.5 1.5 0 0 1-.52-.33 1.29 1.29 0 0 1-.3-.47 1.61 1.61 0 0 1-.1-.56 4.93 4.93 0 0 1 .08-.76q.08-.46.23-1.14l.62-2.78a1.23 1.23 0 0 0-.63.15 1.36 1.36 0 0 0-.46.48 3.61 3.61 0 0 0-.36.83q-.16.51-.31 1.23t-.35 1.47a4.55 4.55 0 0 1-.4 1.09 1.79 1.79 0 0 1-.61.67 1.76 1.76 0 0 1-.95.23 1.64 1.64 0 0 1-.7-.14 1.35 1.35 0 0 1-.48-.36 1.46 1.46 0 0 1-.27-.51 1.92 1.92 0 0 1-.09-.58 1.34 1.34 0 0 1 .23-.81.75.75 0 0 1 .64-.31.69.69 0 0 1 .73.73.69.69 0 0 1-.17.51.44.44 0 0 1-.39.13.76.76 0 0 0 0 .15.36.36 0 0 0 .09.14.45.45 0 0 0 .16.11.82.82 0 0 0 .82-.18 1.73 1.73 0 0 0 .35-.6 6 6 0 0 0 .24-.87q.1-.5.22-1a10.76 10.76 0 0 1 .5-1.77 3.66 3.66 0 0 1 .6-1.06 1.69 1.69 0 0 1 .72-.51 2.71 2.71 0 0 1 .86-.13h2.08l-.75 3.47q-.16.68-.25 1.08a3.15 3.15 0 0 0-.09.58q0 .59.56.59a.84.84 0 0 0 .37-.07.87.87 0 0 0 .29-.22 2.09 2.09 0 0 0 .27-.36q.12-.23.27-.55z"/><path class="d" d="M60.32 44.63a3.43 3.43 0 0 1-1.06.73 5.59 5.59 0 0 1-1.42.43 6.58 6.58 0 0 1-.37 1.75 4.67 4.67 0 0 1-.73 1.33 3.18 3.18 0 0 1-1 .84 2.63 2.63 0 0 1-1.22.29 3.25 3.25 0 0 1-.9-.12 1.83 1.83 0 0 1-.71-.38 1.78 1.78 0 0 1-.46-.68 2.77 2.77 0 0 1-.17-1 5.82 5.82 0 0 1 .09-.93 6.71 6.71 0 0 1 .27-1.08 6.43 6.43 0 0 1 .49-1.08 4.17 4.17 0 0 1 .72-.95 3.48 3.48 0 0 1 1-.67 3.06 3.06 0 0 1 1.28-.26q1.8 0 1.8 2.24h.15a2.21 2.21 0 0 0 .53-.07 4.68 4.68 0 0 0 1.13-.46c.18-.1.35-.21.5-.31zm-3.64 1.2a.42.42 0 0 1-.3-.21.84.84 0 0 1-.08-.37.89.89 0 0 1 .12-.48.72.72 0 0 1 .32-.28 2.5 2.5 0 0 0 0-.38.82.82 0 0 0-.1-.25.35.35 0 0 0-.15-.14.58.58 0 0 0-.24 0 .74.74 0 0 0-.49.2 2.29 2.29 0 0 0-.44.52 4.69 4.69 0 0 0-.38.73 7.25 7.25 0 0 0-.3.85 7.64 7.64 0 0 0-.19.87 5 5 0 0 0-.07.78 3.48 3.48 0 0 0 0 .57.88.88 0 0 0 .12.34.44.44 0 0 0 .22.17 1 1 0 0 0 .33 0 .78.78 0 0 0 .51-.23 2.33 2.33 0 0 0 .48-.62 4.87 4.87 0 0 0 .39-.92 6.83 6.83 0 0 0 .24-1.15z"/><path class="d" d="M58.06 49.95l1.48-7h2l-.6 2.8h1.57l.64-2.8h1.87l-1 4.76a1.39 1.39 0 0 0 0 .21 1.19 1.19 0 0 0 0 .19.66.66 0 0 0 .13.41.53.53 0 0 0 .45.17 1.06 1.06 0 0 0 .29 0l.16-.06a1.65 1.65 0 0 1-.17.65 1.43 1.43 0 0 1-.35.45 1.41 1.41 0 0 1-.48.26 1.74 1.74 0 0 1-.54.09 1.52 1.52 0 0 1-.54-.1 1.14 1.14 0 0 1-.44-.3 1.47 1.47 0 0 1-.3-.52 2.32 2.32 0 0 1-.11-.76v-.22a3.16 3.16 0 0 1 0-.31c0-.13.05-.29.09-.49s.09-.45.16-.75h-1.59l-.72 3.36zm17.61-2.51q-.89 2.59-2.55 2.59a1.72 1.72 0 0 1-1.27-.42 1.54 1.54 0 0 1-.42-1.13 2.82 2.82 0 0 1 0-.36c0-.12 0-.24.05-.36l.06-.33a1.72 1.72 0 0 0 0-.28q0-.67-.53-.67a.55.55 0 0 0-.19 0 .85.85 0 0 0-.19.1l-.23.16-.29.23-.62 3h-2l1.5-7h2l-.6 2.78q.5-.5.88-.91l.67-.73.54-.56a3.64 3.64 0 0 1 .46-.4 1.71 1.71 0 0 1 .45-.23 1.62 1.62 0 0 1 .5-.08.92.92 0 0 1 .73.27 1 1 0 0 1 .24.66.93.93 0 0 1-.23.67.86.86 0 0 1-.65.24.9.9 0 0 1-.36-.06.67.67 0 0 1-.24-.17.65.65 0 0 1-.13-.23.67.67 0 0 1 0-.25 2.84 2.84 0 0 0-.44.33q-.21.18-.4.39l-.39.43-.42.44h.59a2 2 0 0 1 .63.08 1 1 0 0 1 .41.25.92.92 0 0 1 .22.41 2.25 2.25 0 0 1 0 .89l-.06.34c0 .11 0 .23-.06.34a2.34 2.34 0 0 0 0 .36q0 .52.56.52a.78.78 0 0 0 .65-.3 2.09 2.09 0 0 0 .24-.42q.12-.23.26-.55z"/><path class="d" d="M73.78 53.45l2.34-11h2l-.23 1.05a2.82 2.82 0 0 1 .7-.43 2.33 2.33 0 0 1 .93-.17 2 2 0 0 1 .67.11 1.3 1.3 0 0 1 .54.37 1.82 1.82 0 0 1 .36.68 3.52 3.52 0 0 1 .13 1 8.64 8.64 0 0 1-.07 1 7 7 0 0 1-.22 1.1 6.11 6.11 0 0 1-.41 1.06 3.57 3.57 0 0 1-.64.9 3 3 0 0 1-.91.63 2.87 2.87 0 0 1-1.2.24 2.32 2.32 0 0 1-.46 0 1.42 1.42 0 0 1-.34-.11.9.9 0 0 1-.23-.16 1.19 1.19 0 0 1-.15-.19l-.72 3.41zm3.06-5a.51.51 0 0 0 .17.22.57.57 0 0 0 .37.1 1.17 1.17 0 0 0 .66-.19 1.89 1.89 0 0 0 .51-.5 3.2 3.2 0 0 0 .37-.71 6.41 6.41 0 0 0 .25-.81 7.18 7.18 0 0 0 .14-.82 6.68 6.68 0 0 0 0-.74 2.15 2.15 0 0 0-.08-.64 1 1 0 0 0-.18-.35.47.47 0 0 0-.23-.15h-.22a.91.91 0 0 0-.5.17 1.51 1.51 0 0 0-.46.52zm12.94-1.01a6.45 6.45 0 0 1-.43 1 4.13 4.13 0 0 1-.48.7 2.7 2.7 0 0 1-.51.46 2.54 2.54 0 0 1-.51.27 2.23 2.23 0 0 1-.47.13 2.8 2.8 0 0 1-.41 0 1.35 1.35 0 0 1-.95-.32 1.5 1.5 0 0 1-.43-1 5.68 5.68 0 0 1-.38.47 2.86 2.86 0 0 1-.46.41 2.31 2.31 0 0 1-.56.29 2 2 0 0 1-.69.11 2.11 2.11 0 0 1-.7-.12 1.51 1.51 0 0 1-.59-.38 1.92 1.92 0 0 1-.42-.7 3.07 3.07 0 0 1-.16-1.05 5.9 5.9 0 0 1 .1-1 6.4 6.4 0 0 1 .29-1.09 6.24 6.24 0 0 1 .5-1 4.24 4.24 0 0 1 .7-.89 3.21 3.21 0 0 1 .91-.62 2.67 2.67 0 0 1 1.11-.23 1.44 1.44 0 0 1 .86.21.61.61 0 0 1 .27.51v.1l.15-.75h2l-1 4.76a1.32 1.32 0 0 0 0 .23 1.74 1.74 0 0 0 0 .22q0 .6.57.6a.72.72 0 0 0 .38-.11 1.26 1.26 0 0 0 .32-.28 1.92 1.92 0 0 0 .25-.42 3.78 3.78 0 0 0 .18-.51zm-3.53-3.16a.58.58 0 0 0 0-.15.54.54 0 0 0-.09-.18.52.52 0 0 0-.17-.14.61.61 0 0 0-.28-.06.93.93 0 0 0-.56.19 2.1 2.1 0 0 0-.48.51 4 4 0 0 0-.39.72 6.85 6.85 0 0 0-.29.83 7 7 0 0 0-.18.84 5.11 5.11 0 0 0-.06.74 2 2 0 0 0 .08.62.85.85 0 0 0 .18.33.43.43 0 0 0 .23.13h.22a.82.82 0 0 0 .33-.08 1.22 1.22 0 0 0 .33-.23 1.71 1.71 0 0 0 .29-.39 1.93 1.93 0 0 0 .2-.54z"/><path class="d" d="M95.06 47.44a8 8 0 0 1-.67 1 5 5 0 0 1-.85.83 4.2 4.2 0 0 1-1.05.58 3.49 3.49 0 0 1-1.27.22 3 3 0 0 1-.9-.13 1.77 1.77 0 0 1-.69-.39 1.72 1.72 0 0 1-.44-.69 3 3 0 0 1-.15-1 6.18 6.18 0 0 1 .08-.93 6.93 6.93 0 0 1 .26-1.08 6.54 6.54 0 0 1 .47-1.09 4.1 4.1 0 0 1 .71-1 3.41 3.41 0 0 1 1-.67 3 3 0 0 1 1.22-.26 2.19 2.19 0 0 1 .77.11 1.3 1.3 0 0 1 .48.29 1 1 0 0 1 .25.41 1.66 1.66 0 0 1 .07.46 1.51 1.51 0 0 1-.06.45 1 1 0 0 1-.16.32.64.64 0 0 1-.24.19.7.7 0 0 1-.29.06.9.9 0 0 1-.49-.16 2.37 2.37 0 0 0 .17-.83.8.8 0 0 0-.1-.42.32.32 0 0 0-.29-.16.66.66 0 0 0-.44.2 2.39 2.39 0 0 0-.42.53 5 5 0 0 0-.37.75 8.2 8.2 0 0 0-.3.88 8.35 8.35 0 0 0-.2.91 5.42 5.42 0 0 0-.07.84 2.2 2.2 0 0 0 .06.58.84.84 0 0 0 .19.36.69.69 0 0 0 .31.18 1.74 1.74 0 0 0 .44.05 2.44 2.44 0 0 0 .75-.11 2.65 2.65 0 0 0 .63-.3 3.59 3.59 0 0 0 .56-.45q.26-.26.53-.55z"/><path class="d" d="M102.45 44.63a3.43 3.43 0 0 1-1.06.73 5.59 5.59 0 0 1-1.42.43 6.56 6.56 0 0 1-.37 1.75 4.67 4.67 0 0 1-.73 1.33 3.18 3.18 0 0 1-1 .84 2.63 2.63 0 0 1-1.22.29 3.25 3.25 0 0 1-.9-.12 1.83 1.83 0 0 1-.71-.38 1.78 1.78 0 0 1-.46-.68 2.78 2.78 0 0 1-.17-1 5.87 5.87 0 0 1 .08-.93 6.81 6.81 0 0 1 .29-1.1 6.47 6.47 0 0 1 .49-1.08 4.18 4.18 0 0 1 .72-.95 3.5 3.5 0 0 1 1-.67 3.06 3.06 0 0 1 1.28-.26q1.8 0 1.8 2.24h.15a2.22 2.22 0 0 0 .53-.07 4.63 4.63 0 0 0 .57-.19 4.69 4.69 0 0 0 .56-.27c.18-.1.35-.21.5-.31zm-3.67 1.2a.42.42 0 0 1-.3-.21.84.84 0 0 1-.08-.37.88.88 0 0 1 .12-.48.72.72 0 0 1 .32-.28 2.5 2.5 0 0 0 0-.38.8.8 0 0 0-.1-.25.34.34 0 0 0-.15-.14.58.58 0 0 0-.24 0 .74.74 0 0 0-.49.2 2.29 2.29 0 0 0-.44.52 4.82 4.82 0 0 0-.38.73 7.43 7.43 0 0 0-.3.85 7.75 7.75 0 0 0-.19.87 4.9 4.9 0 0 0-.07.78 3.42 3.42 0 0 0 0 .57.88.88 0 0 0 .12.34.44.44 0 0 0 .22.17 1 1 0 0 0 .33 0 .77.77 0 0 0 .51-.23 2.3 2.3 0 0 0 .48-.62 4.87 4.87 0 0 0 .39-.92 6.79 6.79 0 0 0 .25-1.15z"/><path class="d" d="M111.84 47.44a6.08 6.08 0 0 1-.63 1.37 3.26 3.26 0 0 1-.68.78 1.82 1.82 0 0 1-.68.35 2.57 2.57 0 0 1-.61.08 2 2 0 0 1-.78-.13 1.32 1.32 0 0 1-.78-.86 2 2 0 0 1-.09-.58 4.13 4.13 0 0 1 .1-.83q.1-.47.21-1t.21-1a3.9 3.9 0 0 0 .1-.8q0-.72-.51-.72a.66.66 0 0 0-.36.1 1.19 1.19 0 0 0-.3.28 2.17 2.17 0 0 0-.25.41 4 4 0 0 0-.19.5l-1 4.49h-2l1-4.83a1.43 1.43 0 0 0 0-.35 1.26 1.26 0 0 0 0-.23.61.61 0 0 0-.07-.2.44.44 0 0 0-.13-.14.37.37 0 0 0-.2-.05.73.73 0 0 0-.38.1 1.12 1.12 0 0 0-.31.28 2 2 0 0 0-.25.42 4.08 4.08 0 0 0-.19.51l-1 4.49h-2l1.48-7h2l-.15.72a2.46 2.46 0 0 1 .45-.41 2.24 2.24 0 0 1 .44-.24 1.92 1.92 0 0 1 .42-.12 2.51 2.51 0 0 1 .39 0 2 2 0 0 1 .51.06 1.2 1.2 0 0 1 .42.21 1.24 1.24 0 0 1 .31.37 1.67 1.67 0 0 1 .18.56 3 3 0 0 1 .52-.62 2.31 2.31 0 0 1 .52-.36 1.85 1.85 0 0 1 .49-.16 2.46 2.46 0 0 1 .42 0 2 2 0 0 1 .62.09 1.24 1.24 0 0 1 .82.77 2 2 0 0 1 .12.72 4 4 0 0 1-.05.6c0 .22-.08.44-.12.66s-.1.45-.16.67-.11.44-.16.64-.09.4-.12.57a2.52 2.52 0 0 0-.05.46.71.71 0 0 0 .12.42.52.52 0 0 0 .44.16.84.84 0 0 0 .4-.09 1 1 0 0 0 .31-.25 2 2 0 0 0 .25-.39c.08-.15.15-.32.22-.5z"/><path class="d" d="M117.54 44.56l-.76.47-.8.44a2.55 2.55 0 0 1 .33 1.39 2.92 2.92 0 0 1-.08.64 3.26 3.26 0 0 1-.25.7 3.7 3.7 0 0 1-.42.68 3 3 0 0 1-.6.58 2.93 2.93 0 0 1-.79.41 3 3 0 0 1-1 .15 2.13 2.13 0 0 1-1.48-.47 1.69 1.69 0 0 1-.52-1.32 2.77 2.77 0 0 1 0-.38c0-.13 0-.28.07-.42l.92-4.49h1.93l-1 4.93a.56.56 0 0 0 0 .2v.19q0 .57.63.57a1 1 0 0 0 .56-.18 1.72 1.72 0 0 0 .48-.5 2.76 2.76 0 0 0 .34-.74 3.18 3.18 0 0 0 .13-.91.82.82 0 0 0-.05-.31.59.59 0 0 0-.15-.23.74.74 0 0 1-.41.13.72.72 0 0 1-.21 0 .61.61 0 0 1-.2-.11.57.57 0 0 1-.15-.19.6.6 0 0 1-.06-.28.56.56 0 0 1 .07-.28.66.66 0 0 1 .18-.2.76.76 0 0 1 .25-.12 1.07 1.07 0 0 1 .28 0 1.9 1.9 0 0 1 .57.08q.52-.23 1-.48l.86-.5.85-.51q.43-.26.93-.52h.79l-1 4.76a1.81 1.81 0 0 0-.06.45.5.5 0 0 0 .14.41.68.68 0 0 0 .43.11 1.06 1.06 0 0 0 .29 0l.16-.06a1.66 1.66 0 0 1-.17.65 1.44 1.44 0 0 1-.35.45 1.41 1.41 0 0 1-.48.26 1.74 1.74 0 0 1-.54.09 1.5 1.5 0 0 1-.54-.1 1.11 1.11 0 0 1-.43-.3 1.42 1.42 0 0 1-.29-.52 2.47 2.47 0 0 1-.1-.76 3.51 3.51 0 0 1 0-.42q0-.23.08-.5z"/></svg>