<svg xmlns="http://www.w3.org/2000/svg" viewBox="0 0 453.793 453.793" width="512" height="512"><g fill="#4c4c4c"><path d="M213.585 132.804c-26.837 0-48.671 21.832-48.671 48.667v94.882c0 26.836 21.833 48.668 48.671 48.668 26.835 0 48.668-21.832 48.668-48.668v-94.882c-.001-26.835-21.833-48.667-48.668-48.667zm-28.671 48.667c0-15.807 12.862-28.667 28.671-28.667 15.807 0 28.667 12.86 28.667 28.667v14.882c0 15.808-12.86 28.668-28.667 28.668-15.809 0-28.671-12.86-28.671-28.668v-14.882zm28.671 123.55c-15.809 0-28.671-12.86-28.671-28.668v-40.706c8.048 5.888 17.958 9.374 28.671 9.374 10.712 0 20.62-3.486 28.667-9.373v40.705c0 15.808-12.86 28.668-28.667 28.668z"/><path d="M363.415 90.777c-4.307-4.548-10.088-7.052-16.278-7.052h-3.95c-1.993-42.401-16.1-65.646-16.745-66.685a10 10 0 0 0-8.497-4.728h-20.209c-3.867-3.35-9.818-7.185-19.003-11.401a10.002 10.002 0 0 0-8.344.001c-7.176 3.294-12.374 6.356-16.152 9.136-3.779-2.781-8.978-5.842-16.156-9.137a10 10 0 0 0-8.343 0c-7.177 3.295-12.374 6.356-16.153 9.136-3.779-2.781-8.978-5.842-16.156-9.137a9.998 9.998 0 0 0-8.342 0c-7.179 3.295-12.378 6.356-16.158 9.137-3.778-2.78-8.975-5.842-16.152-9.136a10.002 10.002 0 0 0-8.344-.001c-9.185 4.216-15.136 8.05-19.003 11.401h-20.206a10.001 10.001 0 0 0-8.497 4.727c-.694 1.118-16.99 27.937-16.99 76.686 0 33.015 5.769 58.366 11.877 85.205 3.09 13.58 6.286 27.622 8.981 43.586 3.506 20.777 4.388 41.965 5.32 64.398 1.27 30.526 2.582 62.092 10.892 94.106 11.122 42.848 49.273 72.773 92.775 72.773s81.653-29.926 92.775-72.773c8.31-32.014 9.623-63.579 10.892-94.106.933-22.433 1.814-43.621 5.32-64.397 2.695-15.965 5.891-30.007 8.981-43.586 1.46-6.417 2.899-12.751 4.246-19.123h5.88c12.68 0 24.135-10.266 26.079-23.371.032-.214.057-.429.075-.645l2.167-26.266c.007-.093.014-.186.019-.279.377-6.911-2.03-13.643-6.601-18.469zm-88.849-69.631c4.337 2.275 8.405 4.823 10.325 6.494v9.626h-20.652v-9.625c1.916-1.666 5.986-4.216 10.327-6.495zm-40.652 0c4.337 2.275 8.404 4.823 10.324 6.494v9.626h-20.652v-9.625c1.917-1.666 5.986-4.216 10.328-6.495zm-40.653-.001c4.338 2.275 8.405 4.824 10.325 6.494v9.626h-20.658v-9.624c1.918-1.665 5.99-4.216 10.333-6.496zm-40.657.003c4.341 2.28 8.407 4.828 10.324 6.492v9.625h-20.652V27.64c1.917-1.664 5.986-4.213 10.328-6.492zm-37.253 11.164h6.925v14.954c0 5.523 4.477 10 10 10H294.89c5.523 0 10-4.477 10-10V32.312h6.967c3.564 7.799 9.967 25.154 11.317 51.412H103.998c1.367-26.038 7.8-43.55 11.353-51.412zm196.699 142.18c-3.152 13.851-6.411 28.173-9.2 44.696-3.716 22.017-4.665 44.832-5.583 66.895-1.226 29.479-2.494 59.962-10.268 89.912-8.833 34.031-39.023 57.798-73.417 57.798-34.393 0-64.583-23.768-73.417-57.798-7.774-29.95-9.042-60.433-10.268-89.912-.917-22.063-1.866-44.878-5.583-66.896-2.789-16.522-6.048-30.845-9.2-44.695-5.425-23.841-10.184-44.805-11.178-70.767h219.29c-.993 25.962-5.751 46.926-11.176 70.767zm35.882-40.741c-.639 3.43-3.833 6.056-6.254 6.056h-2.093c1.846-11.313 3.183-23.138 3.649-36.082h3.902c.246 0 .995 0 1.757.805.792.835 1.21 2.114 1.158 3.522l-2.119 25.699z"/></g></svg>