<svg xmlns="http://www.w3.org/2000/svg" viewBox="0 0 512.001 512.001" width="512" height="512"><path d="M509.943 416.304a770.583 770.583 0 0 1-6.159-29.117 7.955 7.955 0 0 0-15.627 2.986 787.465 787.465 0 0 0 6.286 29.72c1.095 4.726 1.649 9.663 1.649 14.676 0 16.871-6.505 32.707-16.975 41.327a16.31 16.31 0 0 0-.192.162 10.51 10.51 0 0 0-.199.155c-5.034 4.02-10.724 6.144-16.454 6.144s-11.421-2.124-16.455-6.144a7.26 7.26 0 0 0-.195-.152 10.01 10.01 0 0 0-.195-.165c-10.471-8.621-16.975-24.456-16.975-41.327 0-5.011.555-9.948 1.649-14.674 10.837-46.801 16.898-92.29 18.012-135.203a7.957 7.957 0 0 0-7.953-8.161H333.949V254.94h95.879a7.954 7.954 0 1 0 0-15.909h-95.879v-22.813h95.879a7.954 7.954 0 1 0 0-15.909h-95.879v-22.813h95.879a7.954 7.954 0 1 0 0-15.909h-95.879v-22.813h95.879a7.954 7.954 0 1 0 0-15.909h-95.879v-22.811h95.879a7.955 7.955 0 1 0 0-15.91h-95.879v-22.81h43.978a7.955 7.955 0 0 0 0-15.909h-43.978V29.644h105.224c20.427 0 37.046 16.619 37.046 37.046v203.188c0 30.218 2.488 61.811 7.394 93.901a7.956 7.956 0 0 0 15.727-2.405c-4.785-31.297-7.211-62.08-7.211-91.496V66.69c0-29.199-23.755-52.955-52.955-52.955h-113.18a7.955 7.955 0 0 0-7.955 7.954v262.796a7.955 7.955 0 0 0 7.955 7.955h105.943c-1.602 39.443-7.425 81.068-17.336 123.865-1.367 5.902-2.06 12.046-2.06 18.264 0 21.015 7.889 40.372 21.2 52.26a7.985 7.985 0 0 0 3.68 2.991c7.522 5.532 16.074 8.446 24.849 8.446 8.773 0 17.326-2.913 24.848-8.446a7.98 7.98 0 0 0 3.681-2.991c13.31-11.888 21.2-31.246 21.2-52.26a80.947 80.947 0 0 0-2.056-18.265z" fill="#4c4c4c"/><path d="M429.827 45.425h-25.844a7.954 7.954 0 1 0 0 15.909h25.844a7.953 7.953 0 0 0 7.954-7.954 7.953 7.953 0 0 0-7.954-7.955zm-155.74 333.816c-25.9 0-46.971 21.071-46.971 46.971.001 25.9 21.071 46.97 46.971 46.97 25.899 0 46.97-21.07 46.97-46.97s-21.071-46.971-46.97-46.971zm0 78.031c-17.128 0-31.062-13.934-31.062-31.061.001-17.129 13.934-31.062 31.062-31.062 17.127 0 31.061 13.934 31.061 31.062 0 17.127-13.934 31.061-31.061 31.061z" fill="#4c4c4c"/><path d="M350.492 423.486c-1.334-38.304-32.302-70.589-70.499-73.504a77.145 77.145 0 0 0-20.075 1.093l-9.478-1.548c-12.289-2.008-23.791-7.924-32.582-16.724l-6.455-20.854L258.562 53.45c2.836-15.547-2.772-31.692-14.637-42.133a7.953 7.953 0 0 0-12.853 3.62l-55.8 180.278-55.8-180.276a7.953 7.953 0 0 0-12.853-3.62C94.754 21.76 89.145 37.904 91.981 53.451l17.419 95.485a7.957 7.957 0 0 0 9.254 6.398 7.955 7.955 0 0 0 6.398-9.253l-17.419-95.485c-.963-5.276-.426-10.66 1.406-15.563l58.634 189.435v.001l27.956 90.323.001.003 7.592 24.528a7.956 7.956 0 0 0 1.802 3.095c11.319 12.044 26.537 20.145 42.85 22.811l10.565 1.725a7.92 7.92 0 0 0 3.22-.006 60.938 60.938 0 0 1 17.122-1.102c29.734 2.269 54.771 28.374 55.811 58.193.579 16.602-5.44 32.308-16.951 44.227-11.516 11.923-26.984 18.492-43.557 18.492-27.513 0-51.595-18.565-58.564-45.145a8.293 8.293 0 0 0-.198-.645l-27.621-117.543a7.956 7.956 0 0 0-4.918-5.616l-4.678-1.778-.01-.004-21.015-7.985-2.67-1.014-24.603-134.871a7.955 7.955 0 0 0-15.652 2.855l24.982 136.941-6.455 20.852c-8.79 8.8-20.292 14.716-32.582 16.724l-9.479 1.548a77.271 77.271 0 0 0-20.076-1.094c-38.196 2.915-69.163 35.2-70.5 73.502-.731 20.954 6.872 40.782 21.406 55.833 14.541 15.056 34.073 23.349 55.001 23.349 34.379 0 64.52-22.962 73.672-55.975a7.8 7.8 0 0 0 .351-1.12l24.793-105.503 24.793 105.503c.09.385.209.759.351 1.119 9.152 33.014 39.292 55.977 73.671 55.977 20.927 0 40.46-8.292 55.001-23.349 14.536-15.051 22.138-34.88 21.408-55.833zM201.229 279.077l-17.63-56.961 57.907-187.082a29.414 29.414 0 0 1 1.406 15.562l-41.683 228.481zm-66.01 161.891c-.074.21-.141.425-.198.645-6.969 26.58-31.051 45.143-58.564 45.143-16.572 0-32.041-6.566-43.557-18.492-11.509-11.918-17.529-27.624-16.949-44.226 1.04-29.819 26.077-55.924 55.811-58.193a61.02 61.02 0 0 1 17.122 1.102 7.973 7.973 0 0 0 3.205.01l10.581-1.728c16.313-2.666 31.531-10.766 42.85-22.811a7.941 7.941 0 0 0 1.802-3.095l4.977-16.081 4.199 1.595 5.518 2.097-26.797 114.034z" fill="#4c4c4c"/><path d="M76.456 379.241c-25.9 0-46.971 21.071-46.971 46.971 0 25.9 21.071 46.97 46.971 46.97 25.9 0 46.971-21.07 46.971-46.97s-21.071-46.971-46.971-46.971zm0 78.031c-17.128 0-31.062-13.934-31.062-31.061 0-17.129 13.934-31.062 31.062-31.062s31.062 13.934 31.062 31.062c0 17.127-13.934 31.061-31.062 31.061z" fill="#4c4c4c"/></svg>