<svg xmlns="http://www.w3.org/2000/svg" viewBox="0 0 512.002 512.002" width="512" height="512"><path d="M487.853 69.385a102.763 102.763 0 0 0-3.251-4.104c-.339-.405-.696-.785-1.041-1.185-.786-.912-1.568-1.83-2.38-2.709-.447-.483-.918-.936-1.372-1.408-.735-.763-1.46-1.538-2.215-2.273-.466-.453-.954-.876-1.426-1.32-.771-.721-1.533-1.455-2.324-2.149-.478-.418-.976-.808-1.462-1.216-.812-.684-1.615-1.379-2.448-2.035-.537-.423-1.096-.813-1.641-1.225-.804-.606-1.6-1.226-2.423-1.807-.592-.417-1.206-.801-1.807-1.206-.801-.539-1.592-1.092-2.41-1.606-.607-.383-1.236-.73-1.852-1.099-.835-.499-1.66-1.015-2.512-1.489-.64-.358-1.302-.681-1.951-1.024-.85-.45-1.691-.915-2.556-1.34-.677-.333-1.376-.631-2.062-.948-.859-.398-1.711-.812-2.585-1.188-.745-.319-1.511-.602-2.266-.904-.838-.335-1.665-.688-2.515-1.002-.795-.294-1.611-.55-2.417-.825-.832-.285-1.655-.587-2.498-.852-.832-.261-1.684-.483-2.527-.723-.838-.24-1.666-.498-2.514-.719-.903-.234-1.827-.429-2.741-.641-.809-.188-1.606-.395-2.424-.565-.965-.201-1.952-.361-2.929-.538-.786-.142-1.563-.305-2.358-.431-1.024-.163-2.068-.284-3.104-.42-.757-.1-1.504-.222-2.268-.307-1.882-.377-4.486-.718-5.901-.796v-.001a805.244 805.244 0 0 0-11.754-.646c-1.311-.064-2.628-.117-3.944-.175a855.562 855.562 0 0 0-7.801-.306 819.436 819.436 0 0 0-5.01-.162c-2.081-.06-4.158-.105-6.234-.148a888.78 888.78 0 0 0-18.45-.235h-.01c-.169 0-.333.024-.501.034-87.888-.003-169.96 12.6-227.24 24.329C56.164 67.288 6.178 84.432 5.683 84.604A8.44 8.44 0 0 0 0 92.579v72.204c0 4.659 3.776 8.437 8.437 8.437s8.437-3.778 8.437-8.437V98.686c30.091-9.648 175.196-53.333 336.53-54.119 6.762 15.341 13.02 53.232 13.02 102.744 0 29.635-2.239 57.989-6.304 79.84a8.438 8.438 0 0 0 16.588 3.088c4.25-22.837 6.59-52.288 6.59-82.926 0-42.924-4.491-80.697-11.839-102.647 1.168.018 2.334.035 3.503.057a880.906 880.906 0 0 1 8.537.21c1.523.046 3.041.098 4.557.151 1.456.051 2.91.1 4.367.159 1.923.078 3.834.168 5.744.258 1.116.053 2.232.099 3.349.156 3.05.157 6.086.328 9.098.519.136.008.273.013.411.016.622.044 2.437.334 3.557.541.144.033.286.053.427.079.12.021.242.049.361.066.261.037.519.062.772.075 22.672 2.635 41.774 12.691 55.541 29.191a85.886 85.886 0 0 1 2.682 3.385c13.58 18.063 20.758 41.917 20.758 68.986 0 47.495-16.157 78.823-48.024 93.113-1.332.597-3.505 1.458-6.252 2.422-6.042 2.123-14.86 4.751-23.602 6.195-1.107.128-2.828.266-4.616.391l-.552.038c-.025.002-.051.003-.075.006a430.907 430.907 0 0 1-5.615.343l-.08.004c-3.724.235-7.477.435-11.245.619-1.171.056-2.339.102-3.509.154-.337.015-.678.027-1.017.041a708.835 708.835 0 0 1-11.107.401c-.402.011-.805.02-1.207.03-1.878.052-3.761.096-5.646.135-1.635.034-3.27.072-4.901.096-.53.008-1.063.01-1.593.018-1.001.013-2.008.017-3.011.026-5.018.045-10.023.055-15.001.013l-.643-.003c-83.616-.766-160.866-13.374-215.065-25.08-72.474-15.652-120.545-33.116-121.022-33.29A8.436 8.436 0 0 0 .518 199.21a8.436 8.436 0 0 0 5.021 10.823c.486.178 49.419 17.972 122.95 33.872 58.63 12.678 111.248 19.559 156.695 22.891l-41.877 24.671c-.19.111-.376.231-.556.357-6.586 4.61-10.151 12.148-9.536 20.165.615 8.016 5.289 14.922 12.504 18.471l4.767 2.347c-15.243 9.091-32.395 20.252-46.928 35.399-9.399 9.796-14.771 28.48-14.369 49.979.253 13.573 2.762 25.955 7.02 35.64-15.238 3.827-54.663 8.007-134.285-15.443a8.435 8.435 0 0 0-10.477 5.709 8.44 8.44 0 0 0 5.709 10.478c50.645 14.917 86.163 19.273 110.377 19.273 19.654 0 31.851-2.87 38.656-5.295l2.685 2.645c8.898 8.763 20.401 13.155 31.911 13.155 11.266 0 22.539-4.207 31.385-12.643l73.615-70.184c27.905-26.606 65.076-89.433 74.57-134.69.681-.115 1.362-.231 2.045-.358 13.063-2.431 26.119-6.987 31.606-9.447 37.94-17.013 57.995-54.535 57.995-108.51-.002-30.759-8.351-58.12-24.148-79.13zm-69.33-39.046c-.145-.036-.312-.072-.475-.108.16.03.319.054.478.094l-.003.014zM250.037 310.693c-.072-.935.006-3.239 2.176-4.895l41.62-24.52c-1.827 14.631-5.654 25.491-11.104 30.946-2.981 2.983-8.324 6.447-14.833 10.341l-14.728-7.249c-2.604-1.28-3.057-3.66-3.131-4.623zm84.103 78.609l-73.615 70.184c-11.249 10.726-28.737 10.587-39.813-.322l-3.589-3.536c-6.411-6.313-10.754-21.136-11.065-37.764-.31-16.624 3.487-31.533 9.676-37.982 15.962-16.637 36.279-28.484 52.605-38.003 11.532-6.725 20.64-12.036 26.328-17.73 12.263-12.274 16.198-35.029 17.054-54.835.146-.272.278-.551.393-.836a923.637 923.637 0 0 0 45.993.994c.038.001.074.006.112.006h.033c2.299-.009 4.589-.048 6.882-.077 1.529-.018 3.065-.025 4.589-.051 1.955-.034 3.897-.089 5.845-.135 2.05-.048 4.103-.093 6.142-.156 1.45-.045 2.889-.102 4.333-.154 1.425-.051 2.849-.101 4.242-.159 1.048-.044 2.094-.09 3.139-.137.11-.005.223-.009.333-.015.681-.032 1.366-.057 2.044-.09a758.3 758.3 0 0 0 6.483-.339l.486-.025c-10.25 41.296-43.99 97.67-68.63 121.162z" fill="#4c4c4c"/></svg>