<svg xmlns="http://www.w3.org/2000/svg" viewBox="0 0 512.002 512.002" width="512" height="512"><path d="M352.653 327.176h-5.314v-75.005c0-6.346-5.145-11.489-11.489-11.489h-9.905V41.347c1.312-12.663-1.685-23.744-9.485-31.545-19.817-19.814-60.749-8.764-95.216 25.704-15.236 15.236-26.602 32.771-32.007 49.376-2.688 8.261-3.799 15.97-3.385 22.904a11.52 11.52 0 0 0-.075 1.266v131.632h-9.627c-6.346 0-11.489 5.144-11.489 11.489v75.005h-5.314c-6.345 0-11.489 5.144-11.489 11.489v161.846c0 6.345 5.144 11.489 11.489 11.489h193.306c6.344 0 11.489-5.144 11.489-11.489V338.665c0-6.345-5.144-11.489-11.489-11.489zM211.087 91.992c4.242-13.033 13.866-27.7 26.406-40.239 20.06-20.06 40.779-28.668 53.195-28.668 4.287 0 7.587 1.027 9.523 2.964 4.936 4.936 3.961 18.699-4.85 35.181-.159.294-.322.589-.485.884a80.762 80.762 0 0 1-.847 1.522c-3.667 6.356-8.309 12.796-13.718 18.943l-.109.124c-.804.911-1.629 1.814-2.466 2.711l-.418.452a129.81 129.81 0 0 1-2.811 2.901 129.67 129.67 0 0 1-14.805 12.746c-8.503 6.254-17.288 11.007-25.434 13.658-.204.067-.404.123-.608.187-.43.134-.861.272-1.282.394-.239.069-.47.126-.705.191-.383.105-.766.214-1.142.308-.25.063-.494.114-.741.172-.353.083-.708.17-1.054.242-.259.055-.509.098-.764.147-.326.063-.656.131-.975.185-.26.044-.511.076-.766.115-.306.046-.614.096-.912.134-.257.032-.505.053-.758.079-.287.03-.577.064-.858.087-.249.02-.489.028-.734.041-.272.015-.549.034-.816.043-.241.007-.473.002-.709.002-.257 0-.518.006-.769-.001-.233-.007-.456-.024-.684-.038-.241-.014-.486-.023-.72-.045-.221-.02-.43-.051-.645-.077-.229-.028-.461-.052-.681-.087-.207-.033-.402-.077-.602-.116-.215-.042-.433-.082-.64-.131-.191-.046-.371-.102-.556-.154-.202-.057-.407-.11-.601-.175-.176-.059-.339-.126-.508-.192-.187-.072-.379-.141-.557-.221-.16-.071-.308-.151-.46-.227-.172-.087-.348-.171-.511-.265-.142-.083-.275-.175-.41-.263-.156-.102-.315-.202-.462-.311-.128-.095-.244-.2-.364-.302-.14-.12-.284-.236-.415-.363-.046-.048-.091-.098-.138-.146l-.047-.047c-3.673-3.84-3.9-12.166-.587-22.345zm-2.333 46.682h.001c.223.07.452.13.677.195.318.094.635.192.959.277.253.067.51.124.766.186.331.08.659.163.995.236.257.055.519.101.779.152.341.067.681.134 1.028.192.262.044.527.078.792.117.35.052.701.105 1.056.148.268.032.54.056.81.084.36.037.718.075 1.082.102.272.021.548.034.824.049.368.022.735.044 1.106.057.279.009.563.011.844.017.281.005.558.017.842.017.084 0 .169-.006.253-.006.492-.002.988-.017 1.487-.034.238-.008.473-.01.712-.022a54.37 54.37 0 0 0 2.209-.149c.207-.018.417-.046.625-.067a62.048 62.048 0 0 0 1.668-.185c.293-.038.591-.084.887-.126.483-.069.965-.14 1.453-.222.321-.054.643-.113.965-.171a66.25 66.25 0 0 0 3.892-.827c.318-.077.635-.152.955-.234a73.557 73.557 0 0 0 1.646-.445c.272-.076.542-.147.817-.226a82.93 82.93 0 0 0 2.494-.766 90.966 90.966 0 0 0 6.264-2.302c14.688-6.004 29.78-16.373 43.111-29.704a159.089 159.089 0 0 0 12.21-13.686V240.68h-94.211V138.674zm-21.115 168.32h80.352c6.344 0 11.489-5.144 11.489-11.489 0-6.345-5.145-11.489-11.489-11.489h-80.352V263.66h136.722v63.516H187.639v-20.182zm153.526 182.028h-132.41v-80.886c0-6.346-5.144-11.489-11.489-11.489-6.346 0-11.489 5.144-11.489 11.489v80.886h-14.941V350.155h3.393c.626.106 1.265.174 1.922.174h159.7c.656 0 1.295-.068 1.922-.174h3.392v138.867z" fill="#4c4c4c"/><path d="M313.723 293.257a11.986 11.986 0 0 0-.656-2.148 11.752 11.752 0 0 0-1.057-1.976c-.414-.632-.896-1.218-1.425-1.746s-1.125-1.011-1.746-1.436a12.233 12.233 0 0 0-1.988-1.057 11.54 11.54 0 0 0-2.148-.655 11.36 11.36 0 0 0-4.492 0c-.735.149-1.448.368-2.148.655-.689.287-1.356.643-1.976 1.057-.632.425-1.218.908-1.746 1.436a11.018 11.018 0 0 0-1.436 1.746c-.414.62-.77 1.287-1.057 1.976a11.952 11.952 0 0 0-.655 2.148 11.452 11.452 0 0 0-.218 2.252c0 .747.07 1.505.218 2.24.148.735.368 1.459.655 2.148.287.701.643 1.367 1.057 1.988.425.632.895 1.218 1.436 1.746a11.007 11.007 0 0 0 1.746 1.425c.62.414 1.287.77 1.976 1.057.701.287 1.413.506 2.148.655.747.149 1.495.23 2.252.23.747 0 1.495-.08 2.24-.23a11.54 11.54 0 0 0 2.148-.655 12.233 12.233 0 0 0 1.988-1.057c.62-.414 1.218-.896 1.746-1.425a11.575 11.575 0 0 0 3.366-8.123c0-.758-.079-1.505-.228-2.251zm-105.197 78.171a12.016 12.016 0 0 0-.655-2.16 11.609 11.609 0 0 0-1.057-1.976c-.414-.632-.896-1.218-1.425-1.746s-1.114-1.011-1.746-1.436a11.3 11.3 0 0 0-1.988-1.046 10.809 10.809 0 0 0-2.148-.655 11.305 11.305 0 0 0-4.481 0c-.735.138-1.459.368-2.16.655-.689.287-1.356.632-1.976 1.046-.632.425-1.218.908-1.746 1.436s-1.011 1.114-1.425 1.746c-.414.62-.77 1.287-1.057 1.976a11.168 11.168 0 0 0-.655 2.16c-.149.735-.23 1.494-.23 2.24s.08 1.505.23 2.24c.138.735.368 1.459.655 2.148.287.701.643 1.367 1.057 1.988.414.632.896 1.218 1.425 1.746a11.007 11.007 0 0 0 1.746 1.425c.62.414 1.287.77 1.976 1.057.701.287 1.425.517 2.16.655.735.149 1.494.23 2.24.23.747 0 1.505-.08 2.24-.23a10.809 10.809 0 0 0 2.148-.655 11.316 11.316 0 0 0 1.988-1.057 10.962 10.962 0 0 0 1.746-1.425 10.962 10.962 0 0 0 1.425-1.746 11.663 11.663 0 0 0 1.942-6.376c0-.746-.079-1.505-.229-2.24z" fill="#4c4c4c"/></svg>