<svg xmlns="http://www.w3.org/2000/svg" viewBox="0 0 480 480" width="512" height="512"><g fill="#4c4c4c"><path d="M466.154 415.657l-60.268-47.017-86.688-130.472 29.136-19.23s9.166-5.751 3.027-14.998C343.46 192.039 235.527 29.602 235.527 29.602c-9.15-13.768-27.828-17.559-41.638-8.442l-23.446 15.475v-6.644C170.443 13.454 156.959 0 140.384 0H80.207c-16.575 0-30.06 13.454-30.06 29.991v202.786C21.188 241.356 0 268.204 0 299.907V449.82c0 16.541 13.458 29.998 30 29.998h160.59c16.542 0 30-13.457 30-29.998V299.906c0-31.703-21.188-58.551-50.147-67.13v-83.942l81.092 122.049 1.386 1.665c5.939 5.843 12.432 1.16 12.434 1.158l37.152-24.52 86.72 130.52 19.908 73.648c3.047 11.278 11.076 20.123 22.024 24.265 4.212 1.594 8.561 2.381 12.875 2.381 6.93 0 13.771-2.032 19.805-6.014 9.789-6.461 15.669-16.876 16.132-28.576.463-11.696-4.573-22.541-13.817-29.753zM70.147 29.991c0-5.511 4.513-9.993 10.06-9.993h60.177c5.547 0 10.06 4.483 10.06 9.993v19.844l-6.728 4.44c-6.705 4.426-11.277 11.193-12.875 19.054-1.596 7.852-.032 15.854 4.405 22.532l15.26 22.967c-.042.37-.063.747-.063 1.128v109.955H70.147V29.991zM200.59 299.907v149.914c0 5.513-4.486 9.999-10 9.999H30c-5.514 0-10-4.486-10-9.999V299.907c0-27.569 22.43-49.997 50-49.997h80.59c27.571 0 50 22.428 50 49.997zm62.086-48.395L151.904 84.793a9.879 9.879 0 0 1-1.465-7.481 9.926 9.926 0 0 1 4.294-6.346l50.174-33.114a10.056 10.056 0 0 1 5.555-1.669c3.266 0 6.473 1.578 8.407 4.488l110.737 166.667-66.93 44.174zm197.31 193.108c-.205 5.186-2.816 9.806-7.165 12.676-4.369 2.883-9.687 3.471-14.585 1.619-4.871-1.844-8.441-5.772-9.795-10.779l-12.514-46.296 37.925 29.586c4.104 3.202 6.34 8.01 6.134 13.194z"/><path d="M130.383 279.895c0 5.522 4.478 9.999 10 9.999 11.077 0 20.089 8.967 20.089 19.989v120.093c0 5.522 4.478 9.999 10 9.999s10-4.477 10-9.999V309.883c0-22.05-17.984-39.988-40.089-39.988-5.522 0-10 4.477-10 10z"/></g></svg>