<svg xmlns="http://www.w3.org/2000/svg" viewBox="0 0 512 512" width="512" height="512"><path d="M504.659 359.024c-14.995-36.191-49.994-59.576-89.164-59.576-12.679 0-25.088 2.478-36.886 7.365-20.103 8.327-36.427 22.859-46.963 41.506l-57.914-162.15 51.534-144.288c3.101-8.685-1.424-18.239-10.108-21.34-8.682-3.102-18.239 1.424-21.34 10.108l-37.815 105.879-37.81-105.86c-3.102-8.685-12.657-13.211-21.34-10.108-8.685 3.101-13.21 12.656-10.108 21.34l51.528 144.269-57.927 162.189c-10.229-18.075-26.323-32.999-46.955-41.545-11.796-4.886-24.205-7.362-36.883-7.362-39.172 0-74.171 23.385-89.163 59.577-20.355 49.144 3.068 105.688 52.213 126.047 11.798 4.887 24.208 7.363 36.887 7.363 38.983 0 73.824-23.165 88.932-59.056l.055-.125c.056-.132.117-.262.173-.394a96.948 96.948 0 0 0 3.08-8.563l67.321-188.488 67.313 188.465a98.31 98.31 0 0 0 3.087 8.583c.055.13.115.256.168.387.021.047.04.094.061.139 15.107 35.888 49.945 59.051 88.929 59.051h.001c12.677 0 25.087-2.478 36.885-7.363 49.137-20.361 72.561-76.905 52.209-126.05zm-347.698 54.798l-2.334 6.536c-9.867 23.509-32.669 38.684-58.186 38.684-8.272 0-16.383-1.622-24.107-4.822-32.133-13.311-47.447-50.284-34.14-82.416 9.804-23.669 32.693-38.962 58.31-38.962 8.271 0 16.381 1.623 24.104 4.821 30.068 12.455 45.405 45.621 36.353 76.159zm282.704 40.398c-7.724 3.2-15.834 4.822-24.105 4.822-25.521 0-48.323-15.178-58.187-38.69l-2.334-6.534c-4.113-13.82-3.381-28.512 2.212-42.016 6.447-15.566 18.571-27.689 34.138-34.138 7.725-3.2 15.837-4.822 24.106-4.822 25.617 0 48.506 15.294 58.313 38.962 13.305 32.132-2.01 69.104-34.143 82.416z" fill="#4c4c4c"/></svg>