<svg xmlns="http://www.w3.org/2000/svg" viewBox="0 0 345.857 345.857" width="512" height="512"><path d="M238.658 40.385H107.2a7.5 7.5 0 0 1 0-15h131.457a7.5 7.5 0 0 1 7.5 7.5 7.499 7.499 0 0 1-7.499 7.5z" fill="#4c4c4c"/><path d="M248.255 0H97.602c-15.163 0-27.5 12.336-27.5 27.5v10.769c0 15.164 12.337 27.5 27.5 27.5h5.463c2.038 12.084 9.264 23.151 20.891 31.699 6.957 5.115 15.099 9.003 23.938 11.545.674 19.637 2.557 92.676-4.599 140.445-6.556 43.76-3.741 73.008 8.366 86.933 5.388 6.197 12.656 9.465 21.038 9.465l.23-.001.231.001c8.38 0 15.65-3.269 21.037-9.465 12.107-13.925 14.922-43.174 8.365-86.933-7.154-47.77-5.271-120.809-4.598-140.446 8.84-2.543 16.98-6.43 23.939-11.545 11.625-8.548 18.852-19.615 20.885-31.699h5.467c15.164 0 27.5-12.336 27.5-27.5V27.5c0-15.164-12.336-27.5-27.5-27.5zm-60.527 251.681c7.705 51.426.268 68.981-4.85 74.869-2.588 2.977-5.73 4.367-9.879 4.306l-.031.001-.037-.002h-.07c-4.137.024-7.291-1.33-9.88-4.307-5.118-5.887-12.555-23.442-4.852-74.869 7.062-47.138 5.655-115.685 4.881-139.723 3.26.347 6.572.528 9.919.528 3.348 0 6.659-.181 9.92-.528-.775 24.05-2.18 92.593 4.879 139.725zM172.929 97.487c-27.131 0-49.759-13.695-54.534-31.718h109.054c-4.774 18.022-27.391 31.718-54.52 31.718zm87.826-59.218c0 6.893-5.607 12.5-12.5 12.5H97.602c-6.893 0-12.5-5.607-12.5-12.5V27.5c0-6.892 5.607-12.5 12.5-12.5h150.654c6.893 0 12.5 5.608 12.5 12.5v10.769z" fill="#4c4c4c"/></svg>