<svg xmlns="http://www.w3.org/2000/svg" viewBox="0 0 512 512" width="512" height="512"><path d="M221 46.667H101c-27.57 0-50 22.43-50 50s22.43 50 50 50h120c27.57 0 50-22.43 50-50s-22.43-50-50-50zm0 80H101c-16.542 0-30-13.458-30-30s13.458-30 30-30h120c16.542 0 30 13.458 30 30s-13.458 30-30 30z" fill="#FFF"/><path d="M101 81.667c-5.522 0-10 4.478-10 10v10c0 5.522 4.478 10 10 10s10-4.478 10-10v-10c0-5.522-4.478-10-10-10zm40 0c-5.522 0-10 4.478-10 10v10c0 5.522 4.478 10 10 10s10-4.478 10-10v-10c0-5.522-4.478-10-10-10zm40 0c-5.522 0-10 4.478-10 10v10c0 5.522 4.478 10 10 10s10-4.478 10-10v-10c0-5.522-4.478-10-10-10zm40 0c-5.522 0-10 4.478-10 10v10c0 5.522 4.478 10 10 10s10-4.478 10-10v-10c0-5.522-4.478-10-10-10zm-120 85H61c-5.522 0-10 4.478-10 10v40c0 5.522 4.478 10 10 10h40c5.522 0 10-4.478 10-10v-40c0-5.522-4.478-10-10-10zm-10 40H71v-20h20v20zm90-40h-40c-5.522 0-10 4.478-10 10v40c0 5.522 4.477 10 10 10h40c5.522 0 10-4.478 10-10v-40c0-5.522-4.478-10-10-10zm-10 40h-20v-20h20v20zm90-40h-40c-5.522 0-10 4.478-10 10v40c0 5.522 4.478 10 10 10h40c5.522 0 10-4.478 10-10v-40c0-5.522-4.478-10-10-10zm-10 40h-20v-20h20v20zm-150 40H61c-5.522 0-10 4.478-10 10v40c0 5.522 4.478 10 10 10h40c5.522 0 10-4.478 10-10v-40c0-5.522-4.478-10-10-10zm-10 40H71v-20h20v20zm90-40h-40c-5.522 0-10 4.478-10 10v40c0 5.522 4.478 10 10 10h40c5.522 0 10-4.478 10-10v-40c0-5.522-4.478-10-10-10zm-10 40h-20v-20h20v20zm90-40h-40c-5.522 0-10 4.478-10 10v40c0 5.522 4.478 10 10 10h40c5.522 0 10-4.478 10-10v-40c0-5.522-4.478-10-10-10zm-10 40h-20v-20h20v20zm-150 40H61c-5.522 0-10 4.478-10 10v40c0 5.522 4.478 10 10 10h40c5.522 0 10-4.478 10-10v-40c0-5.522-4.478-10-10-10zm-10 40H71v-20h20v20zm90-40h-40c-5.522 0-10 4.478-10 10v40c0 5.522 4.478 10 10 10h40c5.522 0 10-4.478 10-10v-40c0-5.522-4.478-10-10-10zm-10 40h-20v-20h20v20zm90-40h-40c-5.522 0-10 4.478-10 10v40c0 5.522 4.478 10 10 10h40c5.522 0 10-4.478 10-10v-40c0-5.522-4.478-10-10-10zm-10 40h-20v-20h20v20zm-150 40H61c-5.522 0-10 4.478-10 10v40c0 5.522 4.478 10 10 10h40c5.522 0 10-4.478 10-10v-40c0-5.522-4.478-10-10-10zm-10 40H71v-20h20v20zm170-40H141c-5.522 0-10 4.478-10 10v40c0 5.522 4.478 10 10 10h120c5.522 0 10-4.478 10-10v-40c0-5.522-4.478-10-10-10zm-10 40H151v-20h100v20z" fill="#FFF"/><path d="M499.886 67.412a10.006 10.006 0 0 0-11.518-5.06l-57.661 15.729 4.94-39.006a10 10 0 0 0-15.896-9.277l-34.004 25.333L349.9 23.5a10 10 0 0 0-16.394 9.597l17.097 79.609c-19.954.094-30.273 12.616-39.605 28.704V70c0-38.598-31.402-70-70-70H81C42.402 0 11 31.402 11 70v372c0 38.598 31.402 70 70 70h160c36.053 0 65.82-27.401 69.589-62.47 4.159-7.72 8.338-15.435 12.44-23.002 41.712-76.943 84.843-156.51 104.888-241.427a15.2 15.2 0 0 0 .557-2.376c.22-1.43 1.981-14.389-3.828-29.027a55.127 55.127 0 0 0-5.239-10.056l77.934-63.91a10.002 10.002 0 0 0 2.545-12.32zM291 442c0 27.57-22.43 50-50 50H81c-27.57 0-50-22.43-50-50V70c0-27.57 22.43-50 50-50h160c27.57 0 50 22.43 50 50v372zm111.094-237.436l-16.402-5.194c-.98-.311-2-.471-3.021-.471a9.958 9.958 0 0 0-9.529 6.99 9.91 9.91 0 0 0 .659 7.62 9.952 9.952 0 0 0 5.86 4.93l16.503 5.22c-8.333 25.183-18.485 50.005-29.709 74.511l-23.334-7.387c-5.269-1.663-10.885 1.251-12.552 6.517-1.667 5.265 1.25 10.885 6.515 12.551l20.796 6.584c-14.704 30.561-30.815 60.638-46.882 90.313V343.55l3.767 1.192c1.004.317 2.021.469 3.021.469 4.244 0 8.182-2.724 9.531-6.985 1.666-5.266-1.251-10.885-6.517-12.552l-9.8-3.103V238.66l43.593 13.799c1.004.317 2.021.469 3.021.469 4.244 0 8.182-2.724 9.531-6.985 1.666-5.265-1.251-10.885-6.517-12.552l-48.571-15.375a323.618 323.618 0 0 1 .493-4.409c2.798-26.262 8.255-46 11.803-54.633l19.711 6.239c1.004.317 2.021.469 3.021.469 4.244 0 8.182-2.724 9.531-6.985 1.666-5.265-1.251-10.885-6.517-12.552l-15.14-4.793c5.499-7.044 9.823-8.648 15.87-8.648 6.374 0 15.423 1.999 30.264 6.685 16.449 5.185 23.267 15.771 26.019 24.804l-18.877-5.976c-5.262-1.663-10.884 1.251-12.552 6.517-1.666 5.265 1.251 10.885 6.517 12.552l24.787 7.847c.105.033.21.057.315.086a497.254 497.254 0 0 1-5.208 19.345zm3.33-75.319c-4.952-3.514-10.975-6.616-18.315-8.929-5.503-1.738-10.605-3.253-15.373-4.465l-12.297-57.259L378.6 75.499a10.002 10.002 0 0 0 12.591.521l21.662-16.139-3.866 30.529a10.004 10.004 0 0 0 3.363 8.807 10.01 10.01 0 0 0 9.189 2.098l26.889-7.335-43.004 35.265z" fill="#FFF"/><path d="M353.422 192.22a9.956 9.956 0 0 0-5.86-4.92c-.99-.31-2-.47-3.03-.47-4.37 0-8.2 2.81-9.521 6.979-1.67 5.26 1.261 10.891 6.511 12.55.979.32 2 .471 3.02.471 4.38 0 8.21-2.8 9.53-6.98.81-2.55.58-5.26-.65-7.63z" fill="#FFF"/></svg>